<?xml version="1.0" encoding="UTF-8" standalone="no"?><svg xmlns="http://www.w3.org/2000/svg" xmlns:xlink="http://www.w3.org/1999/xlink" contentScriptType="application/ecmascript" contentStyleType="text/css" height="613px" preserveAspectRatio="none" style="width:547px;height:613px;" version="1.1" viewBox="0 0 547 613" width="547px" zoomAndPan="magnify"><defs><filter height="300%" id="f4o2gyqi86il" width="300%" x="-1" y="-1"><feGaussianBlur result="blurOut" stdDeviation="2.0"/><feColorMatrix in="blurOut" result="blurOut2" type="matrix" values="0 0 0 0 0 0 0 0 0 0 0 0 0 0 0 0 0 0 .4 0"/><feOffset dx="4.0" dy="4.0" in="blurOut2" result="blurOut3"/><feBlend in="SourceGraphic" in2="blurOut3" mode="normal"/></filter></defs><g><!--MD5=[167559344b6808c6e7281c72e5103d8e]
cluster Service Layer--><polygon fill="#ADD8E6" filter="url(#f4o2gyqi86il)" points="214,24,328,24,335,46.2969,525,46.2969,525,465,214,465,214,24" style="stroke: #000000; stroke-width: 1.5;"/><line style="stroke: #000000; stroke-width: 1.5;" x1="214" x2="335" y1="46.2969" y2="46.2969"/><text fill="#000000" font-family="sans-serif" font-size="14" font-weight="bold" lengthAdjust="spacingAndGlyphs" textLength="108" x="218" y="38.9951">Service Layer</text><!--MD5=[de6cf97a447c0cb999a0ecd0089df131]
cluster Application Layer--><polygon fill="#90EE90" filter="url(#f4o2gyqi86il)" points="22,514,164,514,171,536.2969,472,536.2969,472,601,22,601,22,514" style="stroke: #000000; stroke-width: 1.5;"/><line style="stroke: #000000; stroke-width: 1.5;" x1="22" x2="171" y1="536.2969" y2="536.2969"/><text fill="#000000" font-family="sans-serif" font-size="14" font-weight="bold" lengthAdjust="spacingAndGlyphs" textLength="136" x="26" y="528.9951">Application Layer</text><!--MD5=[641175300bac5a0af4d19b956869aacd]
entity ssdp--><rect fill="#FEFECE" filter="url(#f4o2gyqi86il)" height="36.2969" style="stroke: #A80036; stroke-width: 1.5;" width="105" x="393.5" y="59"/><rect fill="#FEFECE" height="5" style="stroke: #A80036; stroke-width: 1.5;" width="10" x="388.5" y="64"/><rect fill="#FEFECE" height="5" style="stroke: #A80036; stroke-width: 1.5;" width="10" x="388.5" y="85.2969"/><text fill="#000000" font-family="sans-serif" font-size="14" lengthAdjust="spacingAndGlyphs" textLength="85" x="403.5" y="81.9951">SsdpService</text><!--MD5=[fcd7b9b58b982891a4c065296d4ac5c8]
entity http--><rect fill="#FEFECE" filter="url(#f4o2gyqi86il)" height="36.2969" style="stroke: #A80036; stroke-width: 1.5;" width="93" x="245.5" y="59"/><rect fill="#FEFECE" height="5" style="stroke: #A80036; stroke-width: 1.5;" width="10" x="240.5" y="64"/><rect fill="#FEFECE" height="5" style="stroke: #A80036; stroke-width: 1.5;" width="10" x="240.5" y="85.2969"/><text fill="#000000" font-family="sans-serif" font-size="14" lengthAdjust="spacingAndGlyphs" textLength="73" x="255.5" y="81.9951">HttpServer</text><!--MD5=[3cc8c711f13e618a9f246baa7cb77485]
entity session--><rect fill="#FEFECE" filter="url(#f4o2gyqi86il)" height="36.2969" style="stroke: #A80036; stroke-width: 1.5;" width="104" x="240" y="187"/><rect fill="#FEFECE" height="5" style="stroke: #A80036; stroke-width: 1.5;" width="10" x="235" y="192"/><rect fill="#FEFECE" height="5" style="stroke: #A80036; stroke-width: 1.5;" width="10" x="235" y="213.2969"/><text fill="#000000" font-family="sans-serif" font-size="14" lengthAdjust="spacingAndGlyphs" textLength="84" x="250" y="209.9951">HttpSession</text><!--MD5=[7342edd9a184d8607391f4c130efbf01]
entity router--><rect fill="#FEFECE" filter="url(#f4o2gyqi86il)" height="36.2969" style="stroke: #A80036; stroke-width: 1.5;" width="67" x="231.5" y="300"/><rect fill="#FEFECE" height="5" style="stroke: #A80036; stroke-width: 1.5;" width="10" x="226.5" y="305"/><rect fill="#FEFECE" height="5" style="stroke: #A80036; stroke-width: 1.5;" width="10" x="226.5" y="326.2969"/><text fill="#000000" font-family="sans-serif" font-size="14" lengthAdjust="spacingAndGlyphs" textLength="47" x="241.5" y="322.9951">Router</text><!--MD5=[800abf3622c134f85427057589664eb8]
entity routes--><rect fill="#FEFECE" filter="url(#f4o2gyqi86il)" height="36.2969" style="stroke: #A80036; stroke-width: 1.5;" width="70" x="230" y="413"/><rect fill="#FEFECE" height="5" style="stroke: #A80036; stroke-width: 1.5;" width="10" x="225" y="418"/><rect fill="#FEFECE" height="5" style="stroke: #A80036; stroke-width: 1.5;" width="10" x="225" y="439.2969"/><text fill="#000000" font-family="sans-serif" font-size="14" lengthAdjust="spacingAndGlyphs" textLength="50" x="240" y="435.9951">Routes</text><!--MD5=[4e23214894d297b5e2584558f34895ad]
entity response--><rect fill="#FEFECE" filter="url(#f4o2gyqi86il)" height="36.2969" style="stroke: #A80036; stroke-width: 1.5;" width="91" x="333.5" y="300"/><rect fill="#FEFECE" height="5" style="stroke: #A80036; stroke-width: 1.5;" width="10" x="328.5" y="305"/><rect fill="#FEFECE" height="5" style="stroke: #A80036; stroke-width: 1.5;" width="10" x="328.5" y="326.2969"/><text fill="#000000" font-family="sans-serif" font-size="14" lengthAdjust="spacingAndGlyphs" textLength="71" x="343.5" y="322.9951">Response</text><!--MD5=[83b38e9af4efda8ed89252aa203a6d0f]
entity disp--><rect fill="#FEFECE" filter="url(#f4o2gyqi86il)" height="36.2969" style="stroke: #A80036; stroke-width: 1.5;" width="122" x="38" y="549"/><rect fill="#FEFECE" height="5" style="stroke: #A80036; stroke-width: 1.5;" width="10" x="33" y="554"/><rect fill="#FEFECE" height="5" style="stroke: #A80036; stroke-width: 1.5;" width="10" x="33" y="575.2969"/><text fill="#000000" font-family="sans-serif" font-size="14" lengthAdjust="spacingAndGlyphs" textLength="102" x="48" y="571.9951">AppDispatcher</text><!--MD5=[3d99d59a27ec55cd9b0b1490801f78bc]
entity dev--><rect fill="#FEFECE" filter="url(#f4o2gyqi86il)" height="36.2969" style="stroke: #A80036; stroke-width: 1.5;" width="134" x="195" y="549"/><rect fill="#FEFECE" height="5" style="stroke: #A80036; stroke-width: 1.5;" width="10" x="190" y="554"/><rect fill="#FEFECE" height="5" style="stroke: #A80036; stroke-width: 1.5;" width="10" x="190" y="575.2969"/><text fill="#000000" font-family="sans-serif" font-size="14" lengthAdjust="spacingAndGlyphs" textLength="114" x="205" y="571.9951">DeviceController</text><!--MD5=[564a394d57ce3e0a92ac6699042b9ef1]
entity cors--><rect fill="#FEFECE" filter="url(#f4o2gyqi86il)" height="36.2969" style="stroke: #A80036; stroke-width: 1.5;" width="91" x="364.5" y="549"/><rect fill="#FEFECE" height="5" style="stroke: #A80036; stroke-width: 1.5;" width="10" x="359.5" y="554"/><rect fill="#FEFECE" height="5" style="stroke: #A80036; stroke-width: 1.5;" width="10" x="359.5" y="575.2969"/><text fill="#000000" font-family="sans-serif" font-size="14" lengthAdjust="spacingAndGlyphs" textLength="71" x="374.5" y="571.9951">CorsPolicy</text><!--MD5=[68415d82737ed4ea136a454e0f6e81a1]
reverse link http to session--><path d="M292,108.53 C292,133.15 292,166.88 292,186.95 " fill="none" id="http&lt;-session" style="stroke: #A80036; stroke-width: 1.0;"/><polygon fill="#A80036" points="292,95.26,288,101.26,292,107.26,296,101.26,292,95.26" style="stroke: #A80036; stroke-width: 1.0;"/><text fill="#000000" font-family="sans-serif" font-size="13" lengthAdjust="spacingAndGlyphs" textLength="49" x="303.5" y="138.0669">one per</text><text fill="#000000" font-family="sans-serif" font-size="13" lengthAdjust="spacingAndGlyphs" textLength="70" x="293" y="153.1997">connection</text><!--MD5=[596910256059db2f1a162153927c3566]
link session to router--><path d="M277.72,223.12 C271.6,231.56 265.15,242.22 262,253 C258.07,266.45 258.74,282.17 260.43,294.66 " fill="none" id="session-&gt;router" style="stroke: #A80036; stroke-width: 1.0;"/><polygon fill="#A80036" points="261.2,299.8,263.7912,290.2981,260.4429,294.8576,255.8834,291.5094,261.2,299.8" style="stroke: #A80036; stroke-width: 1.0;"/><text fill="#000000" font-family="sans-serif" font-size="13" lengthAdjust="spacingAndGlyphs" textLength="49" x="263" y="266.0669">request</text><!--MD5=[f77dae59ee7fb91997e8cc96b2387f78]
link router to routes--><path d="M265,336.34 C265,355.57 265,386.63 265,407.66 " fill="none" id="router-&gt;routes" style="stroke: #A80036; stroke-width: 1.0;"/><polygon fill="#A80036" points="265,412.78,269,403.78,265,407.78,261,403.78,265,412.78" style="stroke: #A80036; stroke-width: 1.0;"/><text fill="#000000" font-family="sans-serif" font-size="13" lengthAdjust="spacingAndGlyphs" textLength="109" x="266" y="379.0669">matched handler</text><!--MD5=[f0561f9570b42d5616bfc26292e562a3]
link routes to cors--><path d="M284.05,449.28 C300.5,464.23 324.89,486.46 346,506 C360.08,519.03 375.8,533.77 388.14,545.37 " fill="none" id="routes-&gt;cors" style="stroke: #A80036; stroke-width: 1.0;"/><polygon fill="#A80036" points="391.85,548.87,388.0377,539.7889,388.209,545.4432,382.5547,545.6145,391.85,548.87" style="stroke: #A80036; stroke-width: 1.0;"/><text fill="#000000" font-family="sans-serif" font-size="13" lengthAdjust="spacingAndGlyphs" textLength="76" x="339" y="494.0669">origin check</text><!--MD5=[3789d0dba9c30e2fe9200f236e5abb5b]
link routes to dev--><path d="M264.61,449.24 C264.07,473.37 263.09,517.2 262.5,543.75 " fill="none" id="routes-&gt;dev" style="stroke: #A80036; stroke-width: 1.0;"/><polygon fill="#A80036" points="262.38,548.82,266.5846,539.9138,262.4943,543.8213,258.5867,539.7309,262.38,548.82" style="stroke: #A80036; stroke-width: 1.0;"/><!--MD5=[2c398872f4d1e8d00cd5b7fe92814f85]
link routes to disp--><path d="M229.78,433.26 C194.74,436.52 142.13,447.18 113,481 C98.19,498.19 96.02,524.87 96.7,543.74 " fill="none" id="routes-&gt;disp" style="stroke: #A80036; stroke-width: 1.0;"/><polygon fill="#A80036" points="96.97,548.84,100.5025,539.6464,96.7132,543.8466,92.513,540.0573,96.97,548.84" style="stroke: #A80036; stroke-width: 1.0;"/><text fill="#000000" font-family="sans-serif" font-size="13" lengthAdjust="spacingAndGlyphs" textLength="141" x="114" y="494.0669">dispatch(AppRequest)</text><!--MD5=[6db40bfefff364f2b57b22e9c92ae484]
link session to response--><path d="M305.59,223.34 C320.92,242.89 345.83,274.69 362.32,295.72 " fill="none" id="session-&gt;response" style="stroke: #A80036; stroke-width: 1.0;"/><polygon fill="#A80036" points="365.5,299.78,363.0864,290.2315,362.4115,295.8479,356.7951,295.173,365.5,299.78" style="stroke: #A80036; stroke-width: 1.0;"/><text fill="#000000" font-family="sans-serif" font-size="13" lengthAdjust="spacingAndGlyphs" textLength="151" x="342" y="266.0669">Result&lt;Reply&gt; -&gt; HTTP</text></g></svg>