<?xml version="1.0" encoding="UTF-8" standalone="no"?><svg xmlns="http://www.w3.org/2000/svg" xmlns:xlink="http://www.w3.org/1999/xlink" contentScriptType="application/ecmascript" contentStyleType="text/css" height="319px" preserveAspectRatio="none" style="width:810px;height:319px;" version="1.1" viewBox="0 0 810 319" width="810px" zoomAndPan="magnify"><defs><filter height="300%" id="f1jrwfczjuhwua" width="300%" x="-1" y="-1"><feGaussianBlur result="blurOut" stdDeviation="2.0"/><feColorMatrix in="blurOut" result="blurOut2" type="matrix" values="0 0 0 0 0 0 0 0 0 0 0 0 0 0 0 0 0 0 .4 0"/><feOffset dx="4.0" dy="4.0" in="blurOut2" result="blurOut3"/><feBlend in="SourceGraphic" in2="blurOut3" mode="normal"/></filter></defs><g><!--MD5=[9622135db9c47642f1916d83494248f0]
cluster First-screen device (Linux)--><polygon fill="#FFFFFF" filter="url(#f1jrwfczjuhwua)" points="22,34,32,24,433,24,433,297,423,307,22,307,22,34" style="stroke: #000000; stroke-width: 1.5;"/><line style="stroke: #000000; stroke-width: 1.5;" x1="423" x2="432" y1="34" y2="25"/><line style="stroke: #000000; stroke-width: 1.5;" x1="22" x2="423" y1="34" y2="34"/><line style="stroke: #000000; stroke-width: 1.5;" x1="423" x2="423" y1="34" y2="307"/><text fill="#000000" font-family="sans-serif" font-size="14" font-weight="bold" lengthAdjust="spacingAndGlyphs" textLength="212" x="117.5" y="49.9951">First-screen device (Linux)</text><!--MD5=[c8375d0abf05781a4d00ac7db9cff037]
cluster host--><rect fill="#FFFFFF" filter="url(#f1jrwfczjuhwua)" height="87" style="stroke: #000000; stroke-width: 1.5;" width="234" x="174" y="196"/><rect fill="#FFFFFF" height="10" style="stroke: #000000; stroke-width: 1.5;" width="15" x="388" y="201"/><rect fill="#FFFFFF" height="2" style="stroke: #000000; stroke-width: 1.5;" width="4" x="386" y="203"/><rect fill="#FFFFFF" height="2" style="stroke: #000000; stroke-width: 1.5;" width="4" x="386" y="207"/><text fill="#000000" font-family="sans-serif" font-size="14" font-weight="bold" lengthAdjust="spacingAndGlyphs" textLength="218" x="182" y="221.9951">Integrator's server process</text><!--MD5=[4e59e6b82718764cf62d973ae65cd240]
cluster Second-screen device--><polygon fill="#FFFFFF" filter="url(#f1jrwfczjuhwua)" points="535,50.5,545,40.5,788,40.5,788,122.5,778,132.5,535,132.5,535,50.5" style="stroke: #000000; stroke-width: 1.5;"/><line style="stroke: #000000; stroke-width: 1.5;" x1="778" x2="787" y1="50.5" y2="41.5"/><line style="stroke: #000000; stroke-width: 1.5;" x1="535" x2="778" y1="50.5" y2="50.5"/><line style="stroke: #000000; stroke-width: 1.5;" x1="778" x2="778" y1="50.5" y2="132.5"/><text fill="#000000" font-family="sans-serif" font-size="14" font-weight="bold" lengthAdjust="spacingAndGlyphs" textLength="177" x="569" y="66.4951">Second-screen device</text><!--MD5=[4541fb81c80c07473fe4b07432ef0971]
entity app--><rect fill="#90EE90" filter="url(#f1jrwfczjuhwua)" height="68.8906" style="stroke: #A80036; stroke-width: 1.5;" width="198" x="128" y="64"/><rect fill="#90EE90" height="5" style="stroke: #A80036; stroke-width: 1.5;" width="10" x="123" y="69"/><rect fill="#90EE90" height="5" style="stroke: #A80036; stroke-width: 1.5;" width="10" x="123" y="122.8906"/><text fill="#000000" font-family="sans-serif" font-size="14" lengthAdjust="spacingAndGlyphs" textLength="112" x="138" y="86.9951">First-screen app</text><text fill="#000000" font-family="sans-serif" font-size="14" lengthAdjust="spacingAndGlyphs" textLength="178" x="138" y="103.292">(child process or anything</text><text fill="#000000" font-family="sans-serif" font-size="14" lengthAdjust="spacingAndGlyphs" textLength="135" x="138" y="119.5889">the launcher starts)</text><!--MD5=[6381cab0df0ee6548e755581de88eda0]
entity lib--><rect fill="#ADD8E6" filter="url(#f1jrwfczjuhwua)" height="36.2969" style="stroke: #A80036; stroke-width: 1.5;" width="120" x="271" y="231"/><rect fill="#ADD8E6" height="5" style="stroke: #A80036; stroke-width: 1.5;" width="10" x="266" y="236"/><rect fill="#ADD8E6" height="5" style="stroke: #A80036; stroke-width: 1.5;" width="10" x="266" y="257.2969"/><text fill="#000000" font-family="sans-serif" font-size="14" lengthAdjust="spacingAndGlyphs" textLength="100" x="281" y="253.9951">libdibeast.so.0</text><!--MD5=[4a65e84059005d12693a083370a06717]
entity client--><rect fill="#FEFECE" filter="url(#f1jrwfczjuhwua)" height="36.2969" style="stroke: #A80036; stroke-width: 1.5;" width="91" x="590.5" y="80.5"/><rect fill="#FEFECE" height="5" style="stroke: #A80036; stroke-width: 1.5;" width="10" x="585.5" y="85.5"/><rect fill="#FEFECE" height="5" style="stroke: #A80036; stroke-width: 1.5;" width="10" x="585.5" y="106.7969"/><text fill="#000000" font-family="sans-serif" font-size="14" lengthAdjust="spacingAndGlyphs" textLength="71" x="600.5" y="103.4951">DIAL client</text><!--MD5=[d474e4466f31d1a9cf3d48e9a7738c83]
link client to lib--><path d="M590.49,111.67 C552.81,122.6 498.45,140.41 454,163 C417.91,181.34 380.13,208.89 356.13,227.61 " fill="none" id="client-&gt;lib" style="stroke: #A80036; stroke-width: 1.0;"/><polygon fill="#A80036" points="352.1,230.77,361.6485,228.3564,356.0321,227.6815,356.707,222.0651,352.1,230.77" style="stroke: #A80036; stroke-width: 1.0;"/><text fill="#000000" font-family="sans-serif" font-size="13" lengthAdjust="spacingAndGlyphs" textLength="177" x="455" y="176.0669">UDP 1900 multicast (SSDP)</text><!--MD5=[d474e4466f31d1a9cf3d48e9a7738c83]
link client to lib--><path d="M641.94,116.62 C646.95,134.45 651.26,162.23 637,180 C607.43,216.87 477.13,235.01 396.39,242.86 " fill="none" id="client-&gt;lib-1" style="stroke: #A80036; stroke-width: 1.0;"/><polygon fill="#A80036" points="391.15,243.37,400.4874,246.5025,396.1277,242.898,399.7322,238.5382,391.15,243.37" style="stroke: #A80036; stroke-width: 1.0;"/><text fill="#000000" font-family="sans-serif" font-size="13" lengthAdjust="spacingAndGlyphs" textLength="126" x="645" y="176.0669">TCP httpPort (REST)</text><!--MD5=[e5bf8febc4a53cdf490911cc607420c4]
link lib to app--><path d="M325.21,230.73 C318.74,212.83 307.15,184.5 292,163 C285.68,154.02 277.99,145.23 270.14,137.19 " fill="none" id="lib-&gt;app" style="stroke: #A80036; stroke-width: 1.0;"/><polygon fill="#A80036" points="266.28,133.31,269.7784,142.5166,269.8012,136.8598,275.4581,136.8826,266.28,133.31" style="stroke: #A80036; stroke-width: 1.0;"/><text fill="#000000" font-family="sans-serif" font-size="13" lengthAdjust="spacingAndGlyphs" textLength="84" x="302" y="176.0669">AppLauncher</text><!--MD5=[2b5cc7e56b85e114708039c019fcd453]
link app to lib--><path d="M127.84,116.12 C81.57,128.35 41.53,148.46 66,180 C90.31,211.33 195.66,230.72 265.99,240.42 " fill="none" id="app-&gt;lib" style="stroke: #A80036; stroke-width: 1.0;"/><polygon fill="#A80036" points="270.99,241.1,262.6083,235.9282,266.0352,240.4289,261.5346,243.8558,270.99,241.1" style="stroke: #A80036; stroke-width: 1.0;"/><text fill="#000000" font-family="sans-serif" font-size="13" lengthAdjust="spacingAndGlyphs" textLength="216" x="67" y="176.0669">TCP 127.0.0.1:httpPort (dial_data)</text></g></svg>